<svg xmlns="http://www.w3.org/2000/svg" version="1.1" xmlns:xlink="http://www.w3.org/1999/xlink" width="1000" height="1000"><style>
    #light-icon {
      display: inline;
    }
    #dark-icon {
      display: none;
    }

    @media (prefers-color-scheme: dark) {
      #light-icon {
        display: none;
      }
      #dark-icon {
        display: inline;
      }
    }
  </style><g id="light-icon"><svg xmlns="http://www.w3.org/2000/svg" version="1.1" xmlns:xlink="http://www.w3.org/1999/xlink" width="1000" height="1000"><g clip-path="url(#SvgjsClipPath1125)"><rect width="1000" height="1000" fill="#ffffff"></rect><g transform="matrix(5,0,0,5,0,0)"><svg xmlns="http://www.w3.org/2000/svg" version="1.1" xmlns:xlink="http://www.w3.org/1999/xlink" width="200" height="200"><svg xmlns="http://www.w3.org/2000/svg" version="1.1" xmlns:xlink="http://www.w3.org/1999/xlink" viewBox="0 0 200 200"><rect width="200" height="200" fill="url('#gradient')"></rect><defs><linearGradient id="gradient" gradientTransform="rotate(113 0.5 0.5)"><stop offset="0%" stop-color="#3c66a5"></stop><stop offset="100%" stop-color="#211c36"></stop></linearGradient><clipPath id="SvgjsClipPath1125"><rect width="1000" height="1000" x="0" y="0" rx="350" ry="350"></rect></clipPath></defs><g><g fill="#ffffff" transform="matrix(8.089048473967685,0,0,8.089048473967685,23.39893900136758,156.70594679474618)" stroke="#ffffff" stroke-width="0.65"><path d="M4.73-14.22L4.73 0L1.31 0L1.31-14.22L4.73-14.22ZM7.50-13.19L10.79-13.19L10.79-10.57L12.53-10.57L12.53-8.28L10.79-8.28L10.79-3.45Q10.79-2.85 11.01-2.62Q11.22-2.38 11.86-2.38L11.86-2.38Q12.34-2.38 12.68-2.44L12.68-2.44L12.68-0.09Q11.79 0.20 10.82 0.20L10.82 0.20Q9.12 0.20 8.31-0.61Q7.50-1.41 7.50-3.04L7.50-3.04L7.50-8.28L6.15-8.28L6.15-10.57L7.50-10.57L7.50-13.19ZM17.63-14.22L17.63 0L14.21 0L14.21-14.22L17.63-14.22Z"></path></g></g></svg></svg></g></g></svg></g><g id="dark-icon"><svg xmlns="http://www.w3.org/2000/svg" version="1.1" xmlns:xlink="http://www.w3.org/1999/xlink" width="1000" height="1000"><g><g transform="matrix(5,0,0,5,0,0)"><svg xmlns="http://www.w3.org/2000/svg" version="1.1" xmlns:xlink="http://www.w3.org/1999/xlink" width="200" height="200"><svg xmlns="http://www.w3.org/2000/svg" version="1.1" xmlns:xlink="http://www.w3.org/1999/xlink" viewBox="0 0 200 200"><rect width="200" height="200" fill="url('#gradient')"></rect><defs><linearGradient id="gradient" gradientTransform="rotate(113 0.5 0.5)"><stop offset="0%" stop-color="#3c66a5"></stop><stop offset="100%" stop-color="#211c36"></stop></linearGradient></defs><g><g fill="#ffffff" transform="matrix(8.089048473967685,0,0,8.089048473967685,23.39893900136758,156.70594679474618)" stroke="#ffffff" stroke-width="0.65"><path d="M4.73-14.22L4.73 0L1.31 0L1.31-14.22L4.73-14.22ZM7.50-13.19L10.79-13.19L10.79-10.57L12.53-10.57L12.53-8.28L10.79-8.28L10.79-3.45Q10.79-2.85 11.01-2.62Q11.22-2.38 11.86-2.38L11.86-2.38Q12.34-2.38 12.68-2.44L12.68-2.44L12.68-0.09Q11.79 0.20 10.82 0.20L10.82 0.20Q9.12 0.20 8.31-0.61Q7.50-1.41 7.50-3.04L7.50-3.04L7.50-8.28L6.15-8.28L6.15-10.57L7.50-10.57L7.50-13.19ZM17.63-14.22L17.63 0L14.21 0L14.21-14.22L17.63-14.22Z"></path></g></g></svg></svg></g></g></svg></g></svg>